M48
;GenerationSoftware,Autodesk,EAGLE,9.6.2*%
;CreationDate,2023-08-21T21:56:27Z*%
FMAT,2
ICI,OFF
METRIC,TZ,000.000
T3C0.305
T2C1.016
T1C3.302
%
G90
M71
T1
X132080Y28956
X22860Y2540
X2540Y2540
X48768Y2540
X28448Y2540
X74676Y2540
X54356Y2540
X100584Y2540
X80264Y2540
X126492Y2540
X106172Y2540
X152400Y2540
X132080Y2540
X22860Y15748
X2540Y15748
X48768Y15748
X28448Y15748
X74676Y15748
X54356Y15748
X100584Y15748
X80264Y15748
X126492Y15748
X106172Y15748
X152400Y15748
X132080Y15748
X22860Y28956
X2540Y28956
X48768Y28956
X28448Y28956
X74676Y28956
X54356Y28956
X100584Y28956
X80264Y28956
X126492Y28956
X106172Y28956
X152400Y28956
X132080Y68580
X22860Y42164
X2540Y42164
X48768Y42164
X28448Y42164
X74676Y42164
X54356Y42164
X100584Y42164
X80264Y42164
X126492Y42164
X106172Y42164
X152400Y42164
X132080Y42164
X22860Y55372
X2540Y55372
X48768Y55372
X28448Y55372
X74676Y55372
X54356Y55372
X100584Y55372
X80264Y55372
X126492Y55372
X106172Y55372
X152400Y55372
X132080Y55372
X22860Y68580
X2540Y68580
X48768Y68580
X28448Y68580
X74676Y68580
X54356Y68580
X100584Y68580
X80264Y68580
X126492Y68580
X106172Y68580
X152400Y68580
T2
X70866Y27686
X6350Y1270
X8890Y1270
X11430Y1270
X13970Y1270
X16510Y1270
X19050Y1270
X32258Y1270
X34798Y1270
X37338Y1270
X39878Y1270
X42418Y1270
X44958Y1270
X58166Y1270
X60706Y1270
X63246Y1270
X65786Y1270
X68326Y1270
X70866Y1270
X84074Y1270
X86614Y1270
X89154Y1270
X91694Y1270
X94234Y1270
X96774Y1270
X109982Y1270
X112522Y1270
X115062Y1270
X117602Y1270
X120142Y1270
X122682Y1270
X135890Y1270
X138430Y1270
X140970Y1270
X143510Y1270
X146050Y1270
X148590Y1270
X6350Y14478
X8890Y14478
X11430Y14478
X13970Y14478
X16510Y14478
X19050Y14478
X32258Y14478
X34798Y14478
X37338Y14478
X39878Y14478
X42418Y14478
X44958Y14478
X58166Y14478
X60706Y14478
X63246Y14478
X65786Y14478
X68326Y14478
X70866Y14478
X84074Y14478
X86614Y14478
X89154Y14478
X91694Y14478
X94234Y14478
X96774Y14478
X109982Y14478
X112522Y14478
X115062Y14478
X117602Y14478
X120142Y14478
X122682Y14478
X135890Y14478
X138430Y14478
X140970Y14478
X143510Y14478
X146050Y14478
X148590Y14478
X6350Y27686
X8890Y27686
X11430Y27686
X13970Y27686
X16510Y27686
X19050Y27686
X32258Y27686
X34798Y27686
X37338Y27686
X39878Y27686
X42418Y27686
X44958Y27686
X58166Y27686
X60706Y27686
X63246Y27686
X65786Y27686
X68326Y27686
X84074Y27686
X86614Y27686
X89154Y27686
X91694Y27686
X94234Y27686
X96774Y27686
X109982Y27686
X112522Y27686
X115062Y27686
X117602Y27686
X120142Y27686
X122682Y27686
X135890Y27686
X138430Y27686
X140970Y27686
X143510Y27686
X146050Y27686
X148590Y27686
X6350Y40894
X8890Y40894
X11430Y40894
X13970Y40894
X16510Y40894
X19050Y40894
X32258Y40894
X34798Y40894
X37338Y40894
X39878Y40894
X42418Y40894
X44958Y40894
X58166Y40894
X60706Y40894
X63246Y40894
X65786Y40894
X68326Y40894
X70866Y40894
X84074Y40894
X86614Y40894
X89154Y40894
X91694Y40894
X94234Y40894
X96774Y40894
X109982Y40894
X112522Y40894
X115062Y40894
X117602Y40894
X120142Y40894
X122682Y40894
X135890Y40894
X138430Y40894
X140970Y40894
X143510Y40894
X146050Y40894
X148590Y40894
X6350Y54102
X8890Y54102
X11430Y54102
X13970Y54102
X16510Y54102
X19050Y54102
X32258Y54102
X34798Y54102
X37338Y54102
X39878Y54102
X42418Y54102
X44958Y54102
X58166Y54102
X60706Y54102
X63246Y54102
X65786Y54102
X68326Y54102
X70866Y54102
X84074Y54102
X86614Y54102
X89154Y54102
X91694Y54102
X94234Y54102
X96774Y54102
X109982Y54102
X112522Y54102
X115062Y54102
X117602Y54102
X120142Y54102
X122682Y54102
X135890Y54102
X138430Y54102
X140970Y54102
X143510Y54102
X146050Y54102
X148590Y54102
X6350Y67310
X8890Y67310
X11430Y67310
X13970Y67310
X16510Y67310
X19050Y67310
X32258Y67310
X34798Y67310
X37338Y67310
X39878Y67310
X42418Y67310
X44958Y67310
X58166Y67310
X60706Y67310
X63246Y67310
X65786Y67310
X68326Y67310
X70866Y67310
X84074Y67310
X86614Y67310
X89154Y67310
X91694Y67310
X94234Y67310
X96774Y67310
X109982Y67310
X112522Y67310
X115062Y67310
X117602Y67310
X120142Y67310
X122682Y67310
X135890Y67310
X138430Y67310
X140970Y67310
X143510Y67310
X146050Y67310
X148590Y67310
T3
X56261Y31496
X64008Y37084
X62103Y30696
X62865Y35902
X57150Y34798
X71946Y35814
X71523Y33677
X67183Y35433
X70739Y36449
X62391Y37795
X69850Y29718
X64516Y30226
X99314Y31496
X86868Y33147
X82423Y38481
X90424Y28956
X93853Y32893
X99695Y37846
X78994Y35306
X91059Y31242
X82169Y31496
X89916Y37084
X88011Y30696
X88773Y35902
X83058Y34798
X97853Y35814
X97431Y33677
X93091Y35433
X96647Y36449
X88299Y37795
X95758Y29718
X90424Y30226
X125222Y31496
X112776Y33147
X108331Y38481
X116332Y28956
X119761Y32893
X125603Y37846
X104902Y35306
X116967Y31242
X108077Y31496
X115824Y37084
X113919Y30696
X114681Y35902
X108966Y34798
X123761Y35814
X123339Y33677
X118999Y35433
X122555Y36449
X114207Y37795
X121666Y29718
X116332Y30226
X151130Y31496
X138684Y33147
X134239Y38481
X142240Y28956
X145669Y32893
X151511Y37846
X130810Y35306
X142875Y31242
X133985Y31496
X141732Y37084
X139827Y30696
X140589Y35902
X134874Y34798
X149670Y35814
X149247Y33677
X144907Y35433
X148463Y36449
X140115Y37795
X147574Y29718
X142240Y30226
X21590Y44704
X9144Y46355
X4699Y51689
X12700Y42164
X16129Y46101
X21971Y51054
X1270Y48514
X13335Y44450
X4445Y44704
X12192Y50292
X10287Y43904
X11049Y49110
X5334Y48006
X20130Y49022
X19707Y46885
X15367Y48641
X18923Y49657
X10575Y51003
X18034Y42926
X12700Y43434
X47498Y44704
X35052Y46355
X30607Y51689
X38608Y42164
X42037Y46101
X47879Y51054
X27178Y48514
X39243Y44450
X30353Y44704
X38100Y50292
X36195Y43904
X36957Y49110
X31242Y48006
X46037Y49022
X45615Y46885
X41275Y48641
X44831Y49657
X36483Y51003
X43942Y42926
X38608Y43434
X73406Y44704
X60960Y46355
X56515Y51689
X64516Y42164
X67945Y46101
X73787Y51054
X53086Y48514
X65151Y44450
X56261Y44704
X64008Y50292
X62103Y43904
X62865Y49110
X57150Y48006
X71946Y49022
X71523Y46885
X67183Y48641
X70739Y49657
X62391Y51003
X69850Y42926
X64516Y43434
X99314Y44704
X86868Y46355
X82423Y51689
X90424Y42164
X93853Y46101
X99695Y51054
X78994Y48514
X91059Y44450
X82169Y44704
X89916Y50292
X88011Y43904
X88773Y49110
X83058Y48006
X97853Y49022
X97431Y46885
X93091Y48641
X96647Y49657
X88299Y51003
X95758Y42926
X90424Y43434
X125222Y44704
X112776Y46355
X108331Y51689
X116332Y42164
X119761Y46101
X125603Y51054
X104902Y48514
X116967Y44450
X108077Y44704
X115824Y50292
X113919Y43904
X114681Y49110
X108966Y48006
X123761Y49022
X123339Y46885
X118999Y48641
X122555Y49657
X114207Y51003
X121666Y42926
X116332Y43434
X151130Y44704
X138684Y46355
X134239Y51689
X142240Y42164
X145669Y46101
X151511Y51054
X130810Y48514
X142875Y44450
X133985Y44704
X141732Y50292
X139827Y43904
X140589Y49110
X134874Y48006
X149670Y49022
X149247Y46885
X144907Y48641
X148463Y49657
X140115Y51003
X147574Y42926
X142240Y43434
X21590Y57912
X9144Y59563
X4699Y64897
X12700Y55372
X16129Y59309
X21971Y64262
X1270Y61722
X13335Y57658
X4445Y57912
X12192Y63500
X10287Y57112
X11049Y62318
X5334Y61214
X20130Y62230
X19707Y60093
X15367Y61849
X18923Y62865
X10575Y64211
X18034Y56134
X12700Y56642
X47498Y57912
X35052Y59563
X30607Y64897
X38608Y55372
X1270Y22098
X47879Y64262
X27178Y61722
X39243Y57658
X30353Y57912
X38100Y63500
X36195Y57112
X36957Y62318
X31242Y61214
X46037Y62230
X45615Y60093
X41275Y61849
X44831Y62865
X36483Y64211
X43942Y56134
X38608Y56642
X73406Y57912
X60960Y59563
X56515Y64897
X64516Y55372
X67945Y59309
X73787Y64262
X53086Y61722
X65151Y57658
X56261Y57912
X64008Y63500
X62103Y57112
X62865Y62318
X57150Y61214
X71946Y62230
X71523Y60093
X67183Y61849
X70739Y62865
X62391Y64211
X69850Y56134
X64516Y56642
X99314Y57912
X86868Y59563
X82423Y64897
X90424Y55372
X93853Y59309
X99695Y64262
X78994Y61722
X91059Y57658
X82169Y57912
X89916Y63500
X88011Y57112
X88773Y62318
X83058Y61214
X97853Y62230
X97431Y60093
X93091Y61849
X96647Y62865
X88299Y64211
X95758Y56134
X90424Y56642
X125222Y57912
X112776Y59563
X108331Y64897
X116332Y55372
X119761Y59309
X125603Y64262
X104902Y61722
X116967Y57658
X108077Y57912
X115824Y63500
X113919Y57112
X114681Y62318
X108966Y61214
X123761Y62230
X123339Y60093
X118999Y61849
X122555Y62865
X114207Y64211
X121666Y56134
X116332Y56642
X151130Y57912
X138684Y59563
X134239Y64897
X142240Y55372
X145669Y59309
X151511Y64262
X130810Y61722
X142875Y57658
X133985Y57912
X141732Y63500
X139827Y57112
X140589Y62318
X134874Y61214
X149670Y62230
X149247Y60093
X144907Y61849
X148463Y62865
X140115Y64211
X147574Y56134
X142240Y56642
X21590Y71120
X9144Y72771
X4699Y78105
X12700Y68580
X16129Y72517
X21971Y77470
X1270Y74930
X13335Y70866
X4445Y71120
X12192Y76708
X10287Y70320
X11049Y75526
X5334Y74422
X20130Y75438
X19707Y73301
X15367Y75057
X18923Y76073
X10575Y77419
X18034Y69342
X12700Y69850
X47498Y71120
X35052Y72771
X30607Y78105
X38608Y68580
X42037Y72517
X47879Y77470
X27178Y74930
X39243Y70866
X30353Y71120
X38100Y76708
X36195Y70320
X36957Y75526
X31242Y74422
X46037Y75438
X45615Y73301
X41275Y75057
X44831Y76073
X36483Y77419
X43942Y69342
X38608Y69850
X73406Y71120
X60960Y72771
X56515Y78105
X64516Y68580
X67945Y72517
X73787Y77470
X53086Y74930
X65151Y70866
X56261Y71120
X64008Y76708
X62103Y70320
X62865Y75526
X57150Y74422
X71946Y75438
X71523Y73301
X67183Y75057
X70739Y76073
X62391Y77419
X69850Y69342
X64516Y69850
X99314Y71120
X86868Y72771
X82423Y78105
X90424Y68580
X93853Y72517
X99695Y77470
X78994Y74930
X91059Y70866
X82169Y71120
X89916Y76708
X88011Y70320
X88773Y75526
X83058Y74422
X97853Y75438
X97431Y73301
X93091Y75057
X96647Y76073
X88299Y77419
X95758Y69342
X90424Y69850
X125222Y71120
X112776Y72771
X108331Y78105
X116332Y68580
X119761Y72517
X125603Y77470
X104902Y74930
X116967Y70866
X108077Y71120
X115824Y76708
X113919Y70320
X114681Y75526
X108966Y74422
X123761Y75438
X123339Y73301
X118999Y75057
X122555Y76073
X114207Y77419
X121666Y69342
X116332Y69850
X151130Y71120
X138684Y72771
X134239Y78105
X142240Y68580
X145669Y72517
X151511Y77470
X130810Y74930
X142875Y70866
X133985Y71120
X141732Y76708
X139827Y70320
X140589Y75526
X134874Y74422
X149670Y75438
X149247Y73301
X144907Y75057
X148463Y76073
X140115Y77419
X147574Y69342
X142240Y69850
X21590Y5080
X9144Y6731
X4699Y12065
X12700Y2540
X16129Y6477
X21971Y11430
X1270Y8890
X13335Y4826
X4445Y5080
X12192Y10668
X10287Y4280
X11049Y9486
X5334Y8382
X20130Y9398
X19707Y7261
X15367Y9017
X18923Y10033
X10575Y11379
X18034Y3302
X12700Y3810
X47498Y5080
X35052Y6731
X30607Y12065
X38608Y2540
X42037Y6477
X47879Y11430
X27178Y8890
X39243Y4826
X30353Y5080
X38100Y10668
X36195Y4280
X36957Y9486
X31242Y8382
X46037Y9398
X45615Y7261
X41275Y9017
X44831Y10033
X36483Y11379
X43942Y3302
X38608Y3810
X73406Y5080
X60960Y6731
X56515Y12065
X64516Y2540
X67945Y6477
X73787Y11430
X53086Y8890
X65151Y4826
X56261Y5080
X64008Y10668
X62103Y4280
X62865Y9486
X57150Y8382
X71946Y9398
X71523Y7261
X67183Y9017
X70739Y10033
X62391Y11379
X69850Y3302
X64516Y3810
X99314Y5080
X86868Y6731
X82423Y12065
X90424Y2540
X93853Y6477
X99695Y11430
X78994Y8890
X91059Y4826
X82169Y5080
X89916Y10668
X88011Y4280
X88773Y9486
X83058Y8382
X97853Y9398
X97431Y7261
X93091Y9017
X96647Y10033
X88299Y11379
X95758Y3302
X90424Y3810
X125222Y5080
X112776Y6731
X108331Y12065
X116332Y2540
X119761Y6477
X125603Y11430
X104902Y8890
X116967Y4826
X108077Y5080
X115824Y10668
X113919Y4280
X114681Y9486
X108966Y8382
X123761Y9398
X123339Y7261
X118999Y9017
X122555Y10033
X114207Y11379
X121666Y3302
X116332Y3810
X151130Y5080
X138684Y6731
X134239Y12065
X142240Y2540
X145669Y6477
X151511Y11430
X130810Y8890
X142875Y4826
X133985Y5080
X141732Y10668
X139827Y4280
X140589Y9486
X134874Y8382
X149670Y9398
X149247Y7261
X144907Y9017
X148463Y10033
X140115Y11379
X147574Y3302
X142240Y3810
X21590Y18288
X9144Y19939
X4699Y25273
X12700Y15748
X16129Y19685
X21971Y24638
X13335Y18034
X4445Y18288
X12192Y23876
X10287Y17488
X11049Y22694
X5334Y21590
X20130Y22606
X19707Y20469
X15367Y22225
X18923Y23241
X10575Y24587
X18034Y16510
X12700Y17018
X47498Y18288
X35052Y19939
X30607Y25273
X38608Y15748
X42037Y19685
X47879Y24638
X27178Y22098
X39243Y18034
X30353Y18288
X38100Y23876
X36195Y17488
X36957Y22694
X31242Y21590
X46037Y22606
X45615Y20469
X41275Y22225
X44831Y23241
X36483Y24587
X43942Y16510
X38608Y17018
X73406Y18288
X60960Y19939
X42037Y59309
X56515Y25273
X64516Y15748
X67945Y19685
X73787Y24638
X53086Y22098
X65151Y18034
X56261Y18288
X64008Y23876
X62103Y17488
X62865Y22694
X57150Y21590
X71946Y22606
X71523Y20469
X67183Y22225
X70739Y23241
X62391Y24587
X69850Y16510
X64516Y17018
X99314Y18288
X86868Y19939
X82423Y25273
X90424Y15748
X93853Y19685
X99695Y24638
X78994Y22098
X91059Y18034
X82169Y18288
X89916Y23876
X88011Y17488
X88773Y22694
X83058Y21590
X97853Y22606
X97431Y20469
X93091Y22225
X96647Y23241
X88299Y24587
X95758Y16510
X90424Y17018
X125222Y18288
X112776Y19939
X108331Y25273
X116332Y15748
X119761Y19685
X125603Y24638
X104902Y22098
X116967Y18034
X108077Y18288
X115824Y23876
X113919Y17488
X114681Y22694
X108966Y21590
X123761Y22606
X123339Y20469
X118999Y22225
X122555Y23241
X114207Y24587
X121666Y16510
X116332Y17018
X151130Y18288
X138684Y19939
X134239Y25273
X142240Y15748
X145669Y19685
X151511Y24638
X130810Y22098
X142875Y18034
X133985Y18288
X141732Y23876
X139827Y17488
X140589Y22694
X134874Y21590
X149670Y22606
X149247Y20469
X144907Y22225
X148463Y23241
X140115Y24587
X147574Y16510
X142240Y17018
X21590Y31496
X9144Y33147
X4699Y38481
X12700Y28956
X16129Y32893
X21971Y37846
X1270Y35306
X13335Y31242
X4445Y31496
X12192Y37084
X10287Y30696
X11049Y35902
X5334Y34798
X20130Y35814
X19707Y33677
X15367Y35433
X18923Y36449
X10575Y37795
X18034Y29718
X12700Y30226
X47498Y31496
X35052Y33147
X30607Y38481
X38608Y28956
X42037Y32893
X47879Y37846
X27178Y35306
X39243Y31242
X30353Y31496
X38100Y37084
X36195Y30696
X36957Y35902
X31242Y34798
X46037Y35814
X45615Y33677
X41275Y35433
X44831Y36449
X36483Y37795
X43942Y29718
X38608Y30226
X73406Y31496
X60960Y33147
X56515Y38481
X64516Y28956
X67945Y32893
X73787Y37846
X53086Y35306
X65151Y31242
M30