M48
;GenerationSoftware,Autodesk,EAGLE,9.6.2*%
;CreationDate,2023-08-21T17:37:02Z*%
FMAT,2
ICI,OFF
METRIC,TZ,000.000
T3C0.305
T2C1.016
T1C3.302
%
G90
M71
T1
X132080Y28956
X22860Y2540
X2540Y2540
X48768Y2540
X28448Y2540
X74676Y2540
X54356Y2540
X100584Y2540
X80264Y2540
X126492Y2540
X106172Y2540
X152400Y2540
X132080Y2540
X22860Y15748
X2540Y15748
X48768Y15748
X28448Y15748
X74676Y15748
X54356Y15748
X100584Y15748
X80264Y15748
X126492Y15748
X106172Y15748
X152400Y15748
X132080Y15748
X22860Y28956
X2540Y28956
X48768Y28956
X28448Y28956
X74676Y28956
X54356Y28956
X100584Y28956
X80264Y28956
X126492Y28956
X106172Y28956
X152400Y28956
X132080Y68580
X22860Y42164
X2540Y42164
X48768Y42164
X28448Y42164
X74676Y42164
X54356Y42164
X100584Y42164
X80264Y42164
X126492Y42164
X106172Y42164
X152400Y42164
X132080Y42164
X22860Y55372
X2540Y55372
X48768Y55372
X28448Y55372
X74676Y55372
X54356Y55372
X100584Y55372
X80264Y55372
X126492Y55372
X106172Y55372
X152400Y55372
X132080Y55372
X22860Y68580
X2540Y68580
X48768Y68580
X28448Y68580
X74676Y68580
X54356Y68580
X100584Y68580
X80264Y68580
X126492Y68580
X106172Y68580
X152400Y68580
T2
X94234Y27686
X6350Y1270
X8890Y1270
X11430Y1270
X13970Y1270
X16510Y1270
X19050Y1270
X32258Y1270
X34798Y1270
X37338Y1270
X39878Y1270
X42418Y1270
X44958Y1270
X58166Y1270
X60706Y1270
X63246Y1270
X65786Y1270
X68326Y1270
X70866Y1270
X84074Y1270
X86614Y1270
X89154Y1270
X91694Y1270
X94234Y1270
X96774Y1270
X109982Y1270
X112522Y1270
X115062Y1270
X117602Y1270
X120142Y1270
X122682Y1270
X135890Y1270
X138430Y1270
X140970Y1270
X143510Y1270
X146050Y1270
X148590Y1270
X6350Y14478
X8890Y14478
X11430Y14478
X13970Y14478
X16510Y14478
X19050Y14478
X32258Y14478
X34798Y14478
X37338Y14478
X39878Y14478
X42418Y14478
X44958Y14478
X58166Y14478
X60706Y14478
X63246Y14478
X65786Y14478
X68326Y14478
X70866Y14478
X84074Y14478
X86614Y14478
X89154Y14478
X91694Y14478
X94234Y14478
X96774Y14478
X109982Y14478
X112522Y14478
X115062Y14478
X117602Y14478
X120142Y14478
X122682Y14478
X135890Y14478
X138430Y14478
X140970Y14478
X143510Y14478
X146050Y14478
X148590Y14478
X6350Y27686
X8890Y27686
X11430Y27686
X13970Y27686
X16510Y27686
X19050Y27686
X32258Y27686
X34798Y27686
X37338Y27686
X39878Y27686
X42418Y27686
X44958Y27686
X58166Y27686
X60706Y27686
X63246Y27686
X65786Y27686
X68326Y27686
X70866Y27686
X84074Y27686
X86614Y27686
X89154Y27686
X91694Y27686
X96774Y27686
X109982Y27686
X112522Y27686
X115062Y27686
X117602Y27686
X120142Y27686
X122682Y27686
X135890Y27686
X138430Y27686
X140970Y27686
X143510Y27686
X146050Y27686
X148590Y27686
X6350Y40894
X8890Y40894
X11430Y40894
X13970Y40894
X16510Y40894
X19050Y40894
X32258Y40894
X34798Y40894
X37338Y40894
X39878Y40894
X42418Y40894
X44958Y40894
X58166Y40894
X60706Y40894
X63246Y40894
X65786Y40894
X68326Y40894
X70866Y40894
X84074Y40894
X86614Y40894
X89154Y40894
X91694Y40894
X94234Y40894
X96774Y40894
X109982Y40894
X112522Y40894
X115062Y40894
X117602Y40894
X120142Y40894
X122682Y40894
X135890Y40894
X138430Y40894
X140970Y40894
X143510Y40894
X146050Y40894
X148590Y40894
X6350Y54102
X8890Y54102
X11430Y54102
X13970Y54102
X16510Y54102
X19050Y54102
X32258Y54102
X34798Y54102
X37338Y54102
X39878Y54102
X42418Y54102
X44958Y54102
X58166Y54102
X60706Y54102
X63246Y54102
X65786Y54102
X68326Y54102
X70866Y54102
X84074Y54102
X86614Y54102
X89154Y54102
X91694Y54102
X94234Y54102
X96774Y54102
X109982Y54102
X112522Y54102
X115062Y54102
X117602Y54102
X120142Y54102
X122682Y54102
X135890Y54102
X138430Y54102
X140970Y54102
X143510Y54102
X146050Y54102
X148590Y54102
X6350Y67310
X8890Y67310
X11430Y67310
X13970Y67310
X16510Y67310
X19050Y67310
X32258Y67310
X34798Y67310
X37338Y67310
X39878Y67310
X42418Y67310
X44958Y67310
X58166Y67310
X60706Y67310
X63246Y67310
X65786Y67310
X68326Y67310
X70866Y67310
X84074Y67310
X86614Y67310
X89154Y67310
X91694Y67310
X94234Y67310
X96774Y67310
X109982Y67310
X112522Y67310
X115062Y67310
X117602Y67310
X120142Y67310
X122682Y67310
X135890Y67310
X138430Y67310
X140970Y67310
X143510Y67310
X146050Y67310
X148590Y67310
T3
X90424Y28956
X93853Y32893
X99949Y37719
X80264Y36576
X91059Y31242
X82169Y31496
X89916Y37084
X84239Y35814
X88011Y30696
X96774Y34798
X88773Y35902
X93091Y35433
X95250Y36449
X88299Y37795
X95758Y29718
X90424Y30226
X125222Y32766
X112776Y33147
X108712Y38100
X116332Y28956
X119761Y32893
X125857Y37719
X106172Y36576
X116967Y31242
X108077Y31496
X115824Y37084
X110147Y35814
X113919Y30696
X122682Y34798
X114681Y35902
X118999Y35433
X121158Y36449
X114207Y37795
X121666Y29718
X116332Y30226
X151130Y32766
X138684Y33147
X134620Y38100
X142240Y28956
X145669Y32893
X151765Y37719
X132080Y36576
X142875Y31242
X133985Y31496
X141732Y37084
X136055Y35814
X139827Y30696
X148590Y34798
X140589Y35902
X144907Y35433
X147066Y36449
X140115Y37795
X147574Y29718
X142240Y30226
X21590Y45974
X9144Y46355
X5080Y51308
X12700Y42164
X16129Y46101
X22225Y50927
X2540Y49784
X13335Y44450
X4445Y44704
X12192Y50292
X6515Y49022
X10287Y43904
X19050Y48006
X11049Y49110
X15367Y48641
X17526Y49657
X10575Y51003
X18034Y42926
X12700Y43434
X47498Y45974
X35052Y46355
X30988Y51308
X38608Y42164
X42037Y46101
X48133Y50927
X28448Y49784
X39243Y44450
X30353Y44704
X38100Y50292
X32423Y49022
X36195Y43904
X44958Y48006
X36957Y49110
X41275Y48641
X43434Y49657
X36483Y51003
X43942Y42926
X38608Y43434
X73406Y45974
X60960Y46355
X56896Y51308
X64516Y42164
X67945Y46101
X74041Y50927
X54356Y49784
X65151Y44450
X56261Y44704
X64008Y50292
X58331Y49022
X62103Y43904
X70866Y48006
X62865Y49110
X67183Y48641
X69342Y49657
X62391Y51003
X69850Y42926
X64516Y43434
X99314Y45974
X86868Y46355
X82804Y51308
X90424Y42164
X93853Y46101
X99949Y50927
X80264Y49784
X91059Y44450
X82169Y44704
X89916Y50292
X84239Y49022
X88011Y43904
X96774Y48006
X88773Y49110
X93091Y48641
X95250Y49657
X88299Y51003
X95758Y42926
X90424Y43434
X125222Y45974
X112776Y46355
X108712Y51308
X116332Y42164
X119761Y46101
X125857Y50927
X106172Y49784
X116967Y44450
X108077Y44704
X115824Y50292
X110147Y49022
X113919Y43904
X122682Y48006
X114681Y49110
X118999Y48641
X121158Y49657
X114207Y51003
X121666Y42926
X116332Y43434
X151130Y45974
X138684Y46355
X134620Y51308
X142240Y42164
X145669Y46101
X151765Y50927
X132080Y49784
X142875Y44450
X133985Y44704
X141732Y50292
X136055Y49022
X139827Y43904
X148590Y48006
X140589Y49110
X144907Y48641
X147066Y49657
X140115Y51003
X147574Y42926
X142240Y43434
X21590Y59182
X9144Y59563
X5080Y64516
X12700Y55372
X16129Y59309
X22225Y64135
X2540Y62992
X13335Y57658
X4445Y57912
X12192Y63500
X6515Y62230
X10287Y57112
X19050Y61214
X11049Y62318
X15367Y61849
X17526Y62865
X10575Y64211
X18034Y56134
X12700Y56642
X47498Y59182
X35052Y59563
X30988Y64516
X38608Y55372
X42037Y59309
X48133Y64135
X28448Y62992
X39243Y57658
X30353Y57912
X38100Y63500
X32423Y62230
X13335Y18034
X44958Y61214
X36957Y62318
X41275Y61849
X43434Y62865
X36483Y64211
X43942Y56134
X38608Y56642
X73406Y59182
X60960Y59563
X56896Y64516
X64516Y55372
X67945Y59309
X74041Y64135
X54356Y62992
X65151Y57658
X56261Y57912
X64008Y63500
X58331Y62230
X62103Y57112
X70866Y61214
X62865Y62318
X67183Y61849
X69342Y62865
X62391Y64211
X69850Y56134
X64516Y56642
X99314Y59182
X86868Y59563
X82804Y64516
X90424Y55372
X93853Y59309
X99949Y64135
X80264Y62992
X91059Y57658
X82169Y57912
X89916Y63500
X84239Y62230
X88011Y57112
X96774Y61214
X88773Y62318
X93091Y61849
X95250Y62865
X88299Y64211
X95758Y56134
X90424Y56642
X125222Y59182
X112776Y59563
X108712Y64516
X116332Y55372
X119761Y59309
X125857Y64135
X106172Y62992
X116967Y57658
X108077Y57912
X115824Y63500
X110147Y62230
X113919Y57112
X122682Y61214
X114681Y62318
X118999Y61849
X121158Y62865
X114207Y64211
X121666Y56134
X116332Y56642
X151130Y59182
X138684Y59563
X134620Y64516
X142240Y55372
X145669Y59309
X151765Y64135
X132080Y62992
X142875Y57658
X133985Y57912
X141732Y63500
X136055Y62230
X139827Y57112
X148590Y61214
X140589Y62318
X144907Y61849
X147066Y62865
X140115Y64211
X147574Y56134
X142240Y56642
X21590Y72390
X9144Y72771
X5080Y77724
X12700Y68580
X16129Y72517
X22225Y77343
X2540Y76200
X13335Y70866
X4445Y71120
X12192Y76708
X6515Y75438
X10287Y70320
X19050Y74422
X11049Y75526
X15367Y75057
X17526Y76073
X10575Y77419
X18034Y69342
X12700Y69850
X47498Y72390
X35052Y72771
X30988Y77724
X38608Y68580
X42037Y72517
X48133Y77343
X28448Y76200
X39243Y70866
X30353Y71120
X38100Y76708
X32423Y75438
X36195Y70320
X44958Y74422
X36957Y75526
X41275Y75057
X43434Y76073
X36483Y77419
X43942Y69342
X38608Y69850
X73406Y72390
X60960Y72771
X56896Y77724
X64516Y68580
X67945Y72517
X74041Y77343
X54356Y76200
X65151Y70866
X56261Y71120
X64008Y76708
X58331Y75438
X62103Y70320
X70866Y74422
X62865Y75526
X67183Y75057
X69342Y76073
X62391Y77419
X69850Y69342
X64516Y69850
X99314Y72390
X86868Y72771
X82804Y77724
X90424Y68580
X93853Y72517
X99949Y77343
X80264Y76200
X91059Y70866
X82169Y71120
X89916Y76708
X84239Y75438
X88011Y70320
X96774Y74422
X88773Y75526
X93091Y75057
X95250Y76073
X88299Y77419
X95758Y69342
X90424Y69850
X125222Y72390
X112776Y72771
X108712Y77724
X116332Y68580
X119761Y72517
X125857Y77343
X106172Y76200
X116967Y70866
X108077Y71120
X115824Y76708
X110147Y75438
X113919Y70320
X122682Y74422
X114681Y75526
X118999Y75057
X121158Y76073
X114207Y77419
X121666Y69342
X116332Y69850
X151130Y72390
X138684Y72771
X134620Y77724
X142240Y68580
X145669Y72517
X151765Y77343
X132080Y76200
X142875Y70866
X133985Y71120
X141732Y76708
X136055Y75438
X139827Y70320
X148590Y74422
X140589Y75526
X144907Y75057
X147066Y76073
X140115Y77419
X147574Y69342
X142240Y69850
X21590Y6350
X9144Y6731
X5080Y11684
X12700Y2540
X16129Y6477
X22225Y11303
X2540Y10160
X13335Y4826
X4445Y5080
X12192Y10668
X6515Y9398
X10287Y4280
X19050Y8382
X11049Y9486
X15367Y9017
X17526Y10033
X10575Y11379
X18034Y3302
X12700Y3810
X47498Y6350
X35052Y6731
X30988Y11684
X38608Y2540
X42037Y6477
X48133Y11303
X28448Y10160
X39243Y4826
X30353Y5080
X38100Y10668
X32423Y9398
X36195Y4280
X44958Y8382
X36957Y9486
X41275Y9017
X43434Y10033
X36483Y11379
X43942Y3302
X38608Y3810
X73406Y6350
X60960Y6731
X56896Y11684
X64516Y2540
X67945Y6477
X74041Y11303
X54356Y10160
X65151Y4826
X56261Y5080
X64008Y10668
X58331Y9398
X62103Y4280
X70866Y8382
X62865Y9486
X67183Y9017
X69342Y10033
X62391Y11379
X69850Y3302
X64516Y3810
X99314Y6350
X86868Y6731
X82804Y11684
X90424Y2540
X93853Y6477
X99949Y11303
X80264Y10160
X91059Y4826
X82169Y5080
X89916Y10668
X84239Y9398
X88011Y4280
X96774Y8382
X88773Y9486
X93091Y9017
X95250Y10033
X88299Y11379
X95758Y3302
X90424Y3810
X125222Y6350
X112776Y6731
X108712Y11684
X116332Y2540
X119761Y6477
X125857Y11303
X106172Y10160
X116967Y4826
X108077Y5080
X115824Y10668
X110147Y9398
X113919Y4280
X122682Y8382
X114681Y9486
X118999Y9017
X121158Y10033
X114207Y11379
X121666Y3302
X116332Y3810
X151130Y6350
X138684Y6731
X134620Y11684
X142240Y2540
X145669Y6477
X151765Y11303
X132080Y10160
X142875Y4826
X133985Y5080
X141732Y10668
X136055Y9398
X139827Y4280
X148590Y8382
X140589Y9486
X144907Y9017
X147066Y10033
X140115Y11379
X147574Y3302
X142240Y3810
X21590Y19558
X9144Y19939
X5080Y24892
X12700Y15748
X16129Y19685
X22225Y24511
X2540Y23368
X4445Y18288
X12192Y23876
X6515Y22606
X10287Y17488
X19050Y21590
X11049Y22694
X15367Y22225
X17526Y23241
X10575Y24587
X18034Y16510
X12700Y17018
X47498Y19558
X35052Y19939
X30988Y24892
X38608Y15748
X42037Y19685
X48133Y24511
X28448Y23368
X39243Y18034
X30353Y18288
X38100Y23876
X32423Y22606
X36195Y17488
X44958Y21590
X36957Y22694
X41275Y22225
X43434Y23241
X36483Y24587
X43942Y16510
X38608Y17018
X73406Y19558
X60960Y19939
X56896Y24892
X64516Y15748
X67945Y19685
X74041Y24511
X54356Y23368
X65151Y18034
X56261Y18288
X64008Y23876
X58331Y22606
X62103Y17488
X70866Y21590
X62865Y22694
X67183Y22225
X36195Y57112
X69342Y23241
X62391Y24587
X69850Y16510
X64516Y17018
X99314Y19558
X86868Y19939
X82804Y24892
X90424Y15748
X93853Y19685
X99949Y24511
X80264Y23368
X91059Y18034
X82169Y18288
X89916Y23876
X84239Y22606
X88011Y17488
X96774Y21590
X88773Y22694
X93091Y22225
X95250Y23241
X88299Y24587
X95758Y16510
X90424Y17018
X125222Y19558
X112776Y19939
X108712Y24892
X116332Y15748
X119761Y19685
X125857Y24511
X106172Y23368
X116967Y18034
X108077Y18288
X115824Y23876
X110147Y22606
X113919Y17488
X122682Y21590
X114681Y22694
X118999Y22225
X121158Y23241
X114207Y24587
X121666Y16510
X116332Y17018
X151130Y19558
X138684Y19939
X134620Y24892
X142240Y15748
X145669Y19685
X151765Y24511
X132080Y23368
X142875Y18034
X133985Y18288
X141732Y23876
X136055Y22606
X139827Y17488
X148590Y21590
X140589Y22694
X144907Y22225
X147066Y23241
X140115Y24587
X147574Y16510
X142240Y17018
X21590Y32766
X9144Y33147
X5080Y38100
X12700Y28956
X16129Y32893
X22225Y37719
X2540Y36576
X13335Y31242
X4445Y31496
X12192Y37084
X6515Y35814
X10287Y30696
X19050Y34798
X11049Y35902
X15367Y35433
X17526Y36449
X10575Y37795
X18034Y29718
X12700Y30226
X47498Y32766
X35052Y33147
X30988Y38100
X38608Y28956
X42037Y32893
X48133Y37719
X28448Y36576
X39243Y31242
X30353Y31496
X38100Y37084
X32423Y35814
X36195Y30696
X44958Y34798
X36957Y35902
X41275Y35433
X43434Y36449
X36483Y37795
X43942Y29718
X38608Y30226
X73406Y32766
X60960Y33147
X56896Y38100
X64516Y28956
X67945Y32893
X74041Y37719
X54356Y36576
X65151Y31242
X56261Y31496
X64008Y37084
X58331Y35814
X62103Y30696
X70866Y34798
X62865Y35902
X67183Y35433
X69342Y36449
X62391Y37795
X69850Y29718
X64516Y30226
X99314Y32766
X86868Y33147
X82804Y38100
M30