M48
;GenerationSoftware,Autodesk,EAGLE,9.6.2*%
;CreationDate,2023-09-06T15:33:02Z*%
FMAT,2
ICI,OFF
METRIC,TZ,000.000
T4C0.300
T3C0.305
T2C1.016
T1C3.302
%
G90
M71
T1
X28448Y2540
X28448Y28448
X48768Y28448
X28448Y48768
X48768Y48768
X54356Y28448
X74676Y28448
X54356Y48768
X74676Y48768
X80264Y28448
X100584Y28448
X80264Y48768
X100584Y48768
X106172Y28448
X126492Y28448
X106172Y48768
X126492Y48768
X2540Y54356
X22860Y54356
X2540Y74676
X22860Y74676
X28448Y54356
X48768Y54356
X28448Y74676
X48768Y74676
X54356Y54356
X74676Y54356
X54356Y74676
X74676Y74676
X80264Y54356
X100584Y54356
X80264Y74676
X100584Y74676
X106172Y54356
X126492Y54356
X106172Y74676
X126492Y74676
X2540Y80264
X22860Y80264
X2540Y100584
X28448Y126492
X22860Y100584
X28448Y80264
X48768Y80264
X28448Y100584
X48768Y100584
X54356Y80264
X74676Y80264
X54356Y100584
X74676Y100584
X80264Y80264
X100584Y80264
X80264Y100584
X100584Y100584
X106172Y80264
X126492Y80264
X106172Y100584
X126492Y100584
X2540Y106172
X22860Y106172
X2540Y126492
X22860Y126492
X28448Y106172
X48768Y106172
X126492Y126492
X106172Y126492
X126492Y106172
X106172Y106172
X100584Y126492
X80264Y126492
X100584Y106172
X80264Y106172
X74676Y126492
X54356Y126492
X74676Y106172
X54356Y106172
X2540Y2540
X22860Y2540
X2540Y22860
X22860Y22860
X48768Y126492
X48768Y2540
X28448Y22860
X48768Y22860
X54356Y2540
X74676Y2540
X54356Y22860
X74676Y22860
X80264Y2540
X100584Y2540
X80264Y22860
X100584Y22860
X106172Y2540
X126492Y2540
X106172Y22860
X126492Y22860
X2540Y28448
X22860Y28448
X2540Y48768
X22860Y48768
T2
X120142Y53086
X122682Y53086
X6350Y78994
X8890Y78994
X11430Y78994
X13970Y78994
X16510Y78994
X19050Y78994
X32258Y78994
X34798Y78994
X37338Y78994
X39878Y78994
X42418Y78994
X44958Y78994
X58166Y78994
X60706Y78994
X63246Y78994
X65786Y78994
X68326Y78994
X70866Y78994
X84074Y78994
X89154Y78994
X91694Y78994
X94234Y78994
X96774Y78994
X109982Y78994
X112522Y78994
X115062Y78994
X117602Y78994
X120142Y78994
X122682Y78994
X6350Y104902
X8890Y104902
X11430Y104902
X13970Y104902
X16510Y104902
X19050Y104902
X32258Y104902
X34798Y104902
X37338Y104902
X39878Y104902
X42418Y104902
X44958Y104902
X58166Y104902
X60706Y104902
X63246Y104902
X65786Y104902
X68326Y104902
X70866Y104902
X84074Y104902
X86614Y104902
X86614Y27178
X89154Y104902
X91694Y104902
X94234Y104902
X96774Y104902
X109982Y104902
X112522Y104902
X115062Y104902
X117602Y104902
X120142Y104902
X122682Y104902
X86614Y78994
X6350Y1270
X8890Y1270
X11430Y1270
X13970Y1270
X16510Y1270
X19050Y1270
X32258Y1270
X34798Y1270
X37338Y1270
X39878Y1270
X42418Y1270
X44958Y1270
X58166Y1270
X60706Y1270
X63246Y1270
X65786Y1270
X68326Y1270
X70866Y1270
X84074Y1270
X86614Y1270
X89154Y1270
X91694Y1270
X94234Y1270
X96774Y1270
X109982Y1270
X112522Y1270
X115062Y1270
X117602Y1270
X120142Y1270
X122682Y1270
X6350Y27178
X8890Y27178
X11430Y27178
X13970Y27178
X16510Y27178
X19050Y27178
X32258Y27178
X34798Y27178
X37338Y27178
X39878Y27178
X42418Y27178
X44958Y27178
X58166Y27178
X60706Y27178
X63246Y27178
X65786Y27178
X68326Y27178
X70866Y27178
X84074Y27178
X89154Y27178
X91694Y27178
X94234Y27178
X96774Y27178
X109982Y27178
X112522Y27178
X115062Y27178
X117602Y27178
X120142Y27178
X122682Y27178
X6350Y53086
X8890Y53086
X11430Y53086
X13970Y53086
X16510Y53086
X19050Y53086
X32258Y53086
X34798Y53086
X37338Y53086
X39878Y53086
X42418Y53086
X44958Y53086
X58166Y53086
X60706Y53086
X63246Y53086
X65786Y53086
X68326Y53086
X70866Y53086
X84074Y53086
X86614Y53086
X89154Y53086
X91694Y53086
X94234Y53086
X96774Y53086
X109982Y53086
X112522Y53086
X115062Y53086
X117602Y53086
T3
X6350Y90932
X19050Y89916
X114427Y68326
X88519Y68326
X84074Y65024
X96774Y64008
X6350Y13208
X19050Y12192
X114427Y16510
X84074Y39116
X96774Y38100
X62611Y16510
X32258Y90932
X44958Y89916
X36703Y42418
X36703Y94234
X10795Y68326
X6350Y39116
X19050Y38100
X84074Y13208
X10795Y16510
X96774Y12192
X36703Y68326
X62611Y94234
X114427Y42418
X58166Y90932
X10795Y94234
X58166Y39116
X32258Y13208
X44958Y12192
X70866Y38100
X62611Y68326
X70866Y89916
X109982Y65024
X88519Y42418
X32258Y65024
X88519Y16510
X10795Y42418
X44958Y64008
X19050Y64008
X122682Y64008
X36703Y16510
X58166Y65024
X70866Y64008
X109982Y13208
X122682Y12192
X109982Y39116
X32258Y39116
X44958Y38100
X58166Y13208
X70866Y12192
X62611Y42418
X84074Y90932
X96774Y89916
X88519Y94234
X109982Y90932
X122682Y89916
X114427Y94234
X6350Y116840
X19050Y115824
X10795Y120142
X109982Y116840
X122682Y38100
X88519Y120142
X96774Y115824
X84074Y116840
X62611Y120142
X70866Y115824
X58166Y116840
X36703Y120142
X44958Y115824
X32258Y116840
X6350Y65024
X114427Y120142
X122682Y115824
T4
X108712Y69596
X115824Y64008
X125095Y64008
X119761Y66040
X113919Y66675
X119761Y62484
X113792Y62484
X118491Y60706
X114173Y60706
X124333Y67056
X113180Y64262
X113435Y61087
X125857Y69723
X104394Y68834
X3683Y91948
X15240Y90170
X9652Y91821
X18923Y91186
X19050Y88773
X5080Y95504
X12192Y89916
X21463Y89916
X16129Y91948
X10287Y92583
X16129Y88392
X10160Y88392
X14859Y86614
X10541Y86614
X20701Y92964
X9548Y90170
X9803Y86995
X22225Y95631
X762Y94742
X29591Y91948
X41148Y90170
X35560Y91821
X44831Y91186
X44958Y88773
X30988Y95504
X38100Y89916
X47371Y89916
X42037Y91948
X36195Y92583
X42037Y88392
X36068Y88392
X40767Y86614
X36449Y86614
X46609Y92964
X35456Y90170
X35711Y86995
X48133Y95631
X26670Y94742
X55499Y91948
X67056Y90170
X61468Y91821
X70739Y91186
X70866Y88773
X56896Y95504
X64008Y89916
X73279Y89916
X67945Y91948
X62103Y92583
X67945Y88392
X61976Y88392
X66675Y86614
X62357Y86614
X72517Y92964
X61364Y90170
X61619Y86995
X74041Y95631
X52578Y94742
X81407Y91948
X92964Y90170
X87376Y91821
X96647Y91186
X119761Y10668
X82804Y95504
X89916Y89916
X3683Y14224
X15240Y12446
X99187Y89916
X93853Y91948
X88011Y92583
X93853Y88392
X87884Y88392
X92583Y86614
X88265Y86614
X98425Y92964
X87272Y90170
X87527Y86995
X99949Y95631
X78486Y94742
X9652Y14097
X107315Y91948
X118872Y90170
X113284Y91821
X122555Y91186
X122682Y88773
X108712Y95504
X115824Y89916
X18923Y13462
X19050Y11049
X125095Y89916
X119761Y91948
X113919Y92583
X119761Y88392
X113792Y88392
X118491Y86614
X114173Y86614
X124333Y92964
X113180Y90170
X113435Y86995
X125857Y95631
X104394Y94742
X5080Y17780
X3683Y117856
X15240Y116078
X9652Y117729
X18923Y117094
X19050Y114681
X5080Y121412
X12192Y115824
X12192Y12192
X21463Y12192
X21463Y115824
X16129Y117856
X10287Y118491
X16129Y114300
X10160Y114300
X14859Y112522
X10541Y112522
X20701Y118872
X9548Y116078
X9803Y112903
X22225Y121539
X762Y120650
X16129Y14224
X29591Y117856
X41148Y116078
X35560Y117729
X44831Y117094
X44958Y114681
X30988Y121412
X38100Y115824
X10287Y14859
X16129Y10668
X47371Y115824
X42037Y117856
X36195Y118491
X42037Y114300
X36068Y114300
X40767Y112522
X36449Y112522
X46609Y118872
X35456Y116078
X35711Y112903
X48133Y121539
X26670Y120650
X10160Y10668
X55499Y117856
X67056Y116078
X61468Y117729
X70739Y117094
X70866Y114681
X56896Y121412
X64008Y115824
X14859Y8890
X10541Y8890
X73279Y115824
X67945Y117856
X62103Y118491
X67945Y114300
X61976Y114300
X66675Y112522
X62357Y112522
X72517Y118872
X61364Y116078
X61619Y112903
X74041Y121539
X52578Y120650
X20701Y15240
X81407Y117856
X92964Y116078
X87376Y117729
X96647Y117094
X96774Y114681
X82804Y121412
X89916Y115824
X9548Y12446
X9803Y9271
X99187Y115824
X93853Y117856
X88011Y118491
X93853Y114300
X87884Y114300
X92583Y112522
X88265Y112522
X98425Y118872
X87272Y116078
X87527Y112903
X99949Y121539
X78486Y120650
X22225Y17907
X107315Y117856
X118872Y116078
X113284Y117729
X122555Y117094
X122682Y114681
X108712Y121412
X115824Y115824
X762Y17018
X29591Y14224
X125095Y115824
X119761Y117856
X113919Y118491
X119761Y114300
X113792Y114300
X118491Y112522
X114173Y112522
X124333Y118872
X113180Y116078
X113435Y112903
X125857Y121539
X104394Y120650
X41148Y12446
X35560Y14097
X44831Y13462
X44958Y11049
X30988Y17780
X38100Y12192
X47371Y12192
X42037Y14224
X36195Y14859
X42037Y10668
X36068Y10668
X40767Y8890
X36449Y8890
X46609Y15240
X35456Y12446
X35711Y9271
X48133Y17907
X26670Y17018
X55499Y14224
X67056Y12446
X61468Y14097
X70739Y13462
X70866Y11049
X56896Y17780
X64008Y12192
X73279Y12192
X67945Y14224
X62103Y14859
X67945Y10668
X61976Y10668
X66675Y8890
X62357Y8890
X72517Y15240
X61364Y12446
X61619Y9271
X74041Y17907
X52578Y17018
X81407Y14224
X92964Y12446
X87376Y14097
X96647Y13462
X96774Y11049
X82804Y17780
X89916Y12192
X99187Y12192
X93853Y14224
X88011Y14859
X93853Y10668
X87884Y10668
X92583Y8890
X88265Y8890
X98425Y15240
X87272Y12446
X87527Y9271
X99949Y17907
X78486Y17018
X107315Y14224
X118872Y12446
X113284Y14097
X122555Y13462
X122682Y11049
X108712Y17780
X115824Y12192
X125095Y12192
X119761Y14224
X113919Y14859
X113792Y10668
X118491Y8890
X114173Y8890
X124333Y15240
X113180Y12446
X113435Y9271
X125857Y17907
X104394Y17018
X3683Y40132
X15240Y38354
X9652Y40005
X18923Y39370
X19050Y36957
X5080Y43688
X12192Y38100
X21463Y38100
X16129Y40132
X10287Y40767
X16129Y36576
X10160Y36576
X14859Y34798
X10541Y34798
X20701Y41148
X9548Y38354
X9803Y35179
X22225Y43815
X762Y42926
X29591Y40132
X41148Y38354
X35560Y40005
X44831Y39370
X44958Y36957
X30988Y43688
X38100Y38100
X47371Y38100
X42037Y40132
X36195Y40767
X42037Y36576
X36068Y36576
X40767Y34798
X36449Y34798
X46609Y41148
X35456Y38354
X35711Y35179
X48133Y43815
X26670Y42926
X55499Y40132
X67056Y38354
X61468Y40005
X70739Y39370
X70866Y36957
X56896Y43688
X64008Y38100
X73279Y38100
X67945Y40132
X62103Y40767
X67945Y36576
X61976Y36576
X66675Y34798
X62357Y34798
X72517Y41148
X61364Y38354
X61619Y35179
X74041Y43815
X52578Y42926
X81407Y40132
X92964Y38354
X87376Y40005
X96647Y39370
X96774Y36957
X82804Y43688
X89916Y38100
X99187Y38100
X93853Y40132
X88011Y40767
X93853Y36576
X87884Y36576
X92583Y34798
X88265Y34798
X98425Y41148
X87272Y38354
X87527Y35179
X99949Y43815
X78486Y42926
X96774Y88773
X107315Y40132
X118872Y38354
X113284Y40005
X122555Y39370
X122682Y36957
X108712Y43688
X115824Y38100
X125095Y38100
X119761Y40132
X113919Y40767
X119761Y36576
X113792Y36576
X118491Y34798
X114173Y34798
X124333Y41148
X113180Y38354
X113435Y35179
X125857Y43815
X104394Y42926
X3683Y66040
X15240Y64262
X9652Y65913
X18923Y65278
X19050Y62865
X5080Y69596
X12192Y64008
X21463Y64008
X16129Y66040
X10287Y66675
X16129Y62484
X10160Y62484
X14859Y60706
X10541Y60706
X20701Y67056
X9548Y64262
X9803Y61087
X22225Y69723
X762Y68834
X29591Y66040
X41148Y64262
X35560Y65913
X44831Y65278
X44958Y62865
X30988Y69596
X38100Y64008
X47371Y64008
X42037Y66040
X36195Y66675
X42037Y62484
X36068Y62484
X40767Y60706
X36449Y60706
X46609Y67056
X35456Y64262
X35711Y61087
X48133Y69723
X26670Y68834
X55499Y66040
X67056Y64262
X61468Y65913
X70739Y65278
X70866Y62865
X56896Y69596
X64008Y64008
X73279Y64008
X67945Y66040
X62103Y66675
X67945Y62484
X61976Y62484
X66675Y60706
X62357Y60706
X72517Y67056
X61364Y64262
X61619Y61087
X74041Y69723
X52578Y68834
X81407Y66040
X92964Y64262
X87376Y65913
X96647Y65278
X96774Y62865
X82804Y69596
X89916Y64008
X99187Y64008
X93853Y66040
X88011Y66675
X93853Y62484
X87884Y62484
X92583Y60706
X88265Y60706
X98425Y67056
X87272Y64262
X87527Y61087
X99949Y69723
X78486Y68834
X107315Y66040
X118872Y64262
X113284Y65913
X122555Y65278
X122682Y62865
M30